<svg width="30" height="31" viewBox="0 0 30 31" fill="none" xmlns="http://www.w3.org/2000/svg">
<path d="M8.06667 17.9917L15 21.9917L21.9333 17.9917L16.3333 14.7584V19.325H13.6667V14.7584L8.06667 17.9917ZM13.6667 11.6917V11.125C12.6889 10.8361 11.8889 10.2859 11.2667 9.47437C10.6444 8.66281 10.3333 7.72414 10.3333 6.65837C10.3333 5.36948 10.7889 4.26948 11.7 3.35837C12.6111 2.44725 13.7111 1.9917 15 1.9917C16.2889 1.9917 17.3889 2.44725 18.3 3.35837C19.2111 4.26948 19.6667 5.36948 19.6667 6.65837C19.6667 7.72503 19.3556 8.66414 18.7333 9.4757C18.1111 10.2873 17.3111 10.837 16.3333 11.125V11.6917L25.6667 17.0584C26.0889 17.3028 26.4169 17.6308 26.6507 18.0424C26.8844 18.4539 27.0009 18.9037 27 19.3917V21.925C27 22.4139 26.8831 22.8641 26.6493 23.2757C26.4156 23.6873 26.088 24.0148 25.6667 24.2584L16.3333 29.625C15.9111 29.8695 15.4667 29.9917 15 29.9917C14.5333 29.9917 14.0889 29.8695 13.6667 29.625L4.33334 24.2584C3.91112 24.0139 3.58312 23.6859 3.34934 23.2744C3.11556 22.8628 2.99912 22.413 3.00001 21.925V19.3917C3.00001 18.9028 3.11689 18.453 3.35067 18.0424C3.58445 17.6317 3.912 17.3037 4.33334 17.0584L13.6667 11.6917ZM13.6667 24.2917L5.66667 19.6917V21.925L15 27.325L24.3333 21.925V19.6917L16.3333 24.2917C15.9111 24.5361 15.4667 24.6584 15 24.6584C14.5333 24.6584 14.0889 24.5361 13.6667 24.2917ZM15 8.65837C15.5556 8.65837 16.028 8.4637 16.4173 8.07437C16.8067 7.68503 17.0009 7.21303 17 6.65837C17 6.10281 16.8053 5.63037 16.416 5.24103C16.0267 4.8517 15.5547 4.65748 15 4.65837C14.4444 4.65837 13.972 4.85303 13.5827 5.24237C13.1933 5.6317 12.9991 6.1037 13 6.65837C13 7.21392 13.1947 7.68637 13.584 8.0757C13.9733 8.46503 14.4453 8.65926 15 8.65837Z" fill="#D200FF"/>
</svg>
