<svg width="50" height="49" viewBox="0 0 50 49" fill="none" xmlns="http://www.w3.org/2000/svg">
<path fill-rule="evenodd" clip-rule="evenodd" d="M24.771 4.89069C19.0422 4.89069 14.0317 7.88085 11.2542 12.3606V12.355C11.0354 12.7136 10.5641 12.8405 10.1938 12.6309H10.1881C10.0815 12.5702 9.97355 12.5095 9.86556 12.4489C9.75753 12.3882 9.6495 12.3275 9.54288 12.2668C9.00984 11.9689 8.86395 11.9192 8.65073 12.2557C8.06158 13.4198 7.58465 14.6115 7.24238 15.8528C7.11894 16.2941 6.72056 16.5975 6.26046 16.5975C5.59276 16.5975 5.11021 15.9796 5.27854 15.3452C6.00797 12.6033 7.27605 10.0931 9.20061 7.88636C11.2767 5.38721 13.998 3.34596 17.2187 2.07156H17.2355C18.9412 1.39849 20.7536 0.96266 22.6894 0.775085C23.3571 0.708883 24.0472 0.675781 24.743 0.675781H24.8328C25.5285 0.675781 26.2131 0.708883 26.8864 0.775085C28.8165 0.96266 30.6345 1.39849 32.3346 2.08259H32.3515C35.5665 3.35147 38.2879 5.39273 40.3695 7.89188C42.2941 10.0986 43.5622 12.6088 44.2916 15.3507C44.4599 15.9796 43.9774 16.6031 43.3097 16.6031C42.8496 16.6031 42.4456 16.2941 42.3278 15.8583C41.9855 14.617 41.5086 13.4253 40.9194 12.2613C40.7118 11.9247 40.5659 11.9744 40.0273 12.2723C39.9206 12.333 39.8126 12.3937 39.7046 12.4544C39.5966 12.5151 39.4886 12.5757 39.382 12.6364L39.3539 12.653C38.9836 12.8571 38.5123 12.7302 38.2935 12.3716C35.516 7.88636 30.4998 4.89069 24.771 4.89069ZM7.10185 18.4737H5.58128C4.85185 18.4737 4.2627 19.0529 4.2627 19.7701V20.4377H3.35933C3.05073 20.4377 2.75335 20.4818 2.4728 20.559C2.38302 20.5811 2.29886 20.6087 2.20908 20.6418C0.974672 21.0997 0.09375 22.2693 0.09375 23.643V32.8838C0.09375 33.9982 0.67168 34.9802 1.54699 35.554C1.92293 35.8795 2.34375 36.067 2.7814 36.0891C3.26956 36.1167 3.76332 36.1112 4.25709 36.1001V36.8118C4.25709 37.529 4.84624 38.1083 5.57567 38.1083H7.09624C7.82566 38.1083 8.41481 37.529 8.41481 36.8118V19.7591C8.41481 19.0419 7.82566 18.4626 7.09624 18.4626L7.10185 18.4737ZM22.5883 37.8929C23.0526 38.4223 23.5468 38.9304 24.0689 39.4673C24.2976 39.7024 24.5317 39.9431 24.771 40.1934C25.0429 39.9161 25.3009 39.6458 25.5516 39.3832L25.5517 39.383C26.1286 38.7787 26.6665 38.2151 27.2454 37.6998C27.5596 37.4184 28.0646 37.2033 28.491 37.1922C29.9179 37.1584 31.3473 37.163 32.7775 37.1676C33.4452 37.1698 34.1131 37.1719 34.7809 37.1702C37.0758 37.1647 38.5515 35.8737 38.5908 33.6449C38.6525 29.7831 38.6581 25.9212 38.5908 22.0594C38.5515 19.8747 37.0758 18.5783 34.8483 18.5783C32.6111 18.5783 30.3747 18.5776 28.1384 18.577H28.1378H28.1371H28.1365C23.6652 18.5758 19.1947 18.5746 14.7217 18.5783C12.4998 18.5783 11.0409 19.8913 11.0073 22.087C10.9455 25.9488 10.9455 29.8106 11.0073 33.6725C11.0465 35.8572 12.5166 37.1591 14.7386 37.1702C15.0093 37.1717 15.2801 37.1733 15.5509 37.175H15.5513C17.3115 37.1858 19.0718 37.1967 20.8321 37.1536C21.5783 37.1371 22.1114 37.3467 22.5883 37.8929ZM30.0341 26.2578H33.3557V29.5293H30.0341V26.2578ZM23.1213 26.2412H26.443V29.5127H23.1213V26.2412ZM19.5359 29.5238H16.2367V26.2467H19.5359V29.5238ZM47.3548 20.6414C47.2707 20.6083 47.1809 20.5807 47.0911 20.5586C46.8106 20.4814 46.5132 20.4373 46.2046 20.4373H45.3012V19.7697C45.3012 19.0525 44.7121 18.4733 43.9827 18.4733H42.4621C41.7327 18.4733 41.1435 19.0525 41.1435 19.7697V36.8224C41.1435 37.5396 41.7327 38.1189 42.4621 38.1189H43.9827C44.7121 38.1189 45.3012 37.5396 45.3012 36.8224V36.1108C45.795 36.1218 46.2831 36.1218 46.7769 36.0997C47.2146 36.0777 47.641 35.8846 48.0113 35.5646C48.8866 34.9908 49.4646 34.0088 49.4646 32.8944V23.6536C49.4646 22.2799 48.5836 21.1103 47.3492 20.6524L47.3548 20.6414ZM42.9512 39.9063C43.0796 39.566 43.408 39.3459 43.7705 39.3436C44.3902 39.3473 44.819 39.9577 44.5896 40.5242C44.3988 41.0097 44.1576 41.4787 43.8658 41.931C42.0086 44.8495 39.2873 46.1791 35.8365 46.1956H34.6189C34.4881 46.1965 34.3575 46.1976 34.2269 46.1987C33.5793 46.204 32.9348 46.2094 32.2904 46.1956C31.9593 46.1846 31.7629 46.2728 31.6227 46.6038C31.084 47.8893 30.0292 48.4796 28.6713 48.5292C27.3976 48.5734 26.1239 48.5679 24.8502 48.5348C23.2118 48.4961 21.9213 47.1666 21.8315 45.4839C21.7418 43.8785 22.9313 42.3558 24.536 42.24C26.0959 42.1241 27.6726 42.1407 29.2324 42.24C30.3658 42.3117 31.1513 43.0455 31.6058 44.055C31.7742 44.4247 31.9762 44.5074 32.3577 44.4964C32.9322 44.478 33.5082 44.477 34.0841 44.4761C35.0605 44.4744 36.0365 44.4728 37.0036 44.3861C39.7698 44.1323 42.0142 42.3503 42.9512 39.9063ZM43.7705 39.3436C43.7723 39.3436 43.7742 39.3436 43.776 39.3436H43.7648C43.7667 39.3436 43.7686 39.3436 43.7705 39.3436Z" fill="black"/>
<path fill-rule="evenodd" clip-rule="evenodd" d="M24.771 4.89069C19.0422 4.89069 14.0317 7.88085 11.2542 12.3606V12.355C11.0354 12.7136 10.5641 12.8405 10.1938 12.6309H10.1881C10.0815 12.5702 9.97355 12.5095 9.86556 12.4489C9.75753 12.3882 9.6495 12.3275 9.54288 12.2668C9.00984 11.9689 8.86395 11.9192 8.65073 12.2557C8.06158 13.4198 7.58465 14.6115 7.24238 15.8528C7.11894 16.2941 6.72056 16.5975 6.26046 16.5975C5.59276 16.5975 5.11021 15.9796 5.27854 15.3452C6.00797 12.6033 7.27605 10.0931 9.20061 7.88636C11.2767 5.38721 13.998 3.34596 17.2187 2.07156H17.2355C18.9412 1.39849 20.7536 0.96266 22.6894 0.775085C23.3571 0.708883 24.0472 0.675781 24.743 0.675781H24.8328C25.5285 0.675781 26.2131 0.708883 26.8864 0.775085C28.8165 0.96266 30.6345 1.39849 32.3346 2.08259H32.3515C35.5665 3.35147 38.2879 5.39273 40.3695 7.89188C42.2941 10.0986 43.5622 12.6088 44.2916 15.3507C44.4599 15.9796 43.9774 16.6031 43.3097 16.6031C42.8496 16.6031 42.4456 16.2941 42.3278 15.8583C41.9855 14.617 41.5086 13.4253 40.9194 12.2613C40.7118 11.9247 40.5659 11.9744 40.0273 12.2723C39.9206 12.333 39.8126 12.3937 39.7046 12.4544C39.5966 12.5151 39.4886 12.5757 39.382 12.6364L39.3539 12.653C38.9836 12.8571 38.5123 12.7302 38.2935 12.3716C35.516 7.88636 30.4998 4.89069 24.771 4.89069ZM7.10185 18.4737H5.58128C4.85185 18.4737 4.2627 19.0529 4.2627 19.7701V20.4377H3.35933C3.05073 20.4377 2.75335 20.4818 2.4728 20.559C2.38302 20.5811 2.29886 20.6087 2.20908 20.6418C0.974672 21.0997 0.09375 22.2693 0.09375 23.643V32.8838C0.09375 33.9982 0.67168 34.9802 1.54699 35.554C1.92293 35.8795 2.34375 36.067 2.7814 36.0891C3.26956 36.1167 3.76332 36.1112 4.25709 36.1001V36.8118C4.25709 37.529 4.84624 38.1083 5.57567 38.1083H7.09624C7.82566 38.1083 8.41481 37.529 8.41481 36.8118V19.7591C8.41481 19.0419 7.82566 18.4626 7.09624 18.4626L7.10185 18.4737ZM22.5883 37.8929C23.0526 38.4223 23.5468 38.9304 24.0689 39.4673C24.2976 39.7024 24.5317 39.9431 24.771 40.1934C25.0429 39.9161 25.3009 39.6458 25.5516 39.3832L25.5517 39.383C26.1286 38.7787 26.6665 38.2151 27.2454 37.6998C27.5596 37.4184 28.0646 37.2033 28.491 37.1922C29.9179 37.1584 31.3473 37.163 32.7775 37.1676C33.4452 37.1698 34.1131 37.1719 34.7809 37.1702C37.0758 37.1647 38.5515 35.8737 38.5908 33.6449C38.6525 29.7831 38.6581 25.9212 38.5908 22.0594C38.5515 19.8747 37.0758 18.5783 34.8483 18.5783C32.6111 18.5783 30.3747 18.5776 28.1384 18.577H28.1378H28.1371H28.1365C23.6652 18.5758 19.1947 18.5746 14.7217 18.5783C12.4998 18.5783 11.0409 19.8913 11.0073 22.087C10.9455 25.9488 10.9455 29.8106 11.0073 33.6725C11.0465 35.8572 12.5166 37.1591 14.7386 37.1702C15.0093 37.1717 15.2801 37.1733 15.5509 37.175H15.5513C17.3115 37.1858 19.0718 37.1967 20.8321 37.1536C21.5783 37.1371 22.1114 37.3467 22.5883 37.8929ZM30.0341 26.2578H33.3557V29.5293H30.0341V26.2578ZM23.1213 26.2412H26.443V29.5127H23.1213V26.2412ZM19.5359 29.5238H16.2367V26.2467H19.5359V29.5238ZM47.3548 20.6414C47.2707 20.6083 47.1809 20.5807 47.0911 20.5586C46.8106 20.4814 46.5132 20.4373 46.2046 20.4373H45.3012V19.7697C45.3012 19.0525 44.7121 18.4733 43.9827 18.4733H42.4621C41.7327 18.4733 41.1435 19.0525 41.1435 19.7697V36.8224C41.1435 37.5396 41.7327 38.1189 42.4621 38.1189H43.9827C44.7121 38.1189 45.3012 37.5396 45.3012 36.8224V36.1108C45.795 36.1218 46.2831 36.1218 46.7769 36.0997C47.2146 36.0777 47.641 35.8846 48.0113 35.5646C48.8866 34.9908 49.4646 34.0088 49.4646 32.8944V23.6536C49.4646 22.2799 48.5836 21.1103 47.3492 20.6524L47.3548 20.6414ZM42.9512 39.9063C43.0796 39.566 43.408 39.3459 43.7705 39.3436C44.3902 39.3473 44.819 39.9577 44.5896 40.5242C44.3988 41.0097 44.1576 41.4787 43.8658 41.931C42.0086 44.8495 39.2873 46.1791 35.8365 46.1956H34.6189C34.4881 46.1965 34.3575 46.1976 34.2269 46.1987C33.5793 46.204 32.9348 46.2094 32.2904 46.1956C31.9593 46.1846 31.7629 46.2728 31.6227 46.6038C31.084 47.8893 30.0292 48.4796 28.6713 48.5292C27.3976 48.5734 26.1239 48.5679 24.8502 48.5348C23.2118 48.4961 21.9213 47.1666 21.8315 45.4839C21.7418 43.8785 22.9313 42.3558 24.536 42.24C26.0959 42.1241 27.6726 42.1407 29.2324 42.24C30.3658 42.3117 31.1513 43.0455 31.6058 44.055C31.7742 44.4247 31.9762 44.5074 32.3577 44.4964C32.9322 44.478 33.5082 44.477 34.0841 44.4761C35.0605 44.4744 36.0365 44.4728 37.0036 44.3861C39.7698 44.1323 42.0142 42.3503 42.9512 39.9063ZM43.7705 39.3436C43.7723 39.3436 43.7742 39.3436 43.776 39.3436H43.7648C43.7667 39.3436 43.7686 39.3436 43.7705 39.3436Z" fill="url(#paint0_linear_1800_4305)"/>
<defs>
<linearGradient id="paint0_linear_1800_4305" x1="36.9343" y1="3.53742" x2="10.6612" y2="46.1463" gradientUnits="userSpaceOnUse">
<stop stop-color="#00FFA3"/>
<stop offset="1" stop-color="#70FF00"/>
</linearGradient>
</defs>
</svg>
