<svg width="125" height="99" viewBox="0 0 125 99" fill="none" xmlns="http://www.w3.org/2000/svg">
<path d="M101.806 48.9048L56.1436 58.332C51.4255 59.306 46.6911 56.742 44.9288 52.2583L28.18 9.64619M75.7217 97.8279L59.2696 57.514M43.9707 49.3564L2.09574 58.5692M118.391 1.75756L117.343 2.21038L108.284 14.9105C107.182 16.4557 105.127 16.9831 103.417 16.1598L89.8567 9.6312L88.6061 9.61652M122.319 20.353L108.179 13.6306M102.983 15.0455L94.3244 27.6559M24.4685 11.3594L1.44853 54.5313C0.459139 56.3868 1.16127 58.6931 3.01677 59.6825L74.2828 97.6827C76.1383 98.6721 78.4445 97.97 79.4339 96.1145L102.454 52.9426C103.443 51.0871 102.741 48.7809 100.886 47.7915L29.6197 9.7912C27.7642 8.80181 25.4579 9.50393 24.4685 11.3594ZM87.9196 10.3097L92.4818 27.6166C92.6963 28.43 93.5294 28.9155 94.3427 28.7011L123.054 21.1326C123.867 20.9182 124.353 20.085 124.138 19.2717L119.576 1.96474C119.362 1.1514 118.529 0.665869 117.715 0.880273L89.004 8.4488C88.1907 8.66321 87.7052 9.49635 87.9196 10.3097Z" stroke="#B00BFF" stroke-width="1.52299"/>
</svg>
