<svg width="30" height="30" viewBox="0 0 30 30" fill="none" xmlns="http://www.w3.org/2000/svg">
<path d="M28.4757 11.2559C28.3333 10.8192 28.0656 10.4339 27.706 10.1481C27.3464 9.86222 26.9107 9.68835 26.4531 9.64806L19.7734 9.07033L17.1601 2.84299C16.9803 2.4195 16.6799 2.05828 16.2963 1.80436C15.9126 1.55044 15.4628 1.41504 15.0027 1.41504C14.5426 1.41504 14.0927 1.55044 13.7091 1.80436C13.3255 2.05828 13.025 2.4195 12.8453 2.84299L10.2285 9.07033L3.54878 9.64806C3.08869 9.68616 2.6501 9.85929 2.28804 10.1457C1.92597 10.4322 1.65656 10.8191 1.51362 11.2581C1.37067 11.6971 1.36055 12.1685 1.48453 12.6132C1.60851 13.0579 1.86106 13.4561 2.2105 13.7578L7.28707 18.1875L5.76363 24.7781C5.65915 25.2269 5.68928 25.6965 5.85024 26.1283C6.01121 26.5601 6.29587 26.9348 6.66864 27.2056C7.04141 27.4765 7.48575 27.6315 7.94612 27.6512C8.40648 27.6709 8.86244 27.5544 9.25699 27.3164L14.9992 23.8289L20.7414 27.3164C21.1359 27.5541 21.5917 27.6702 22.0519 27.6503C22.512 27.6304 22.9561 27.4754 23.3286 27.2046C23.7012 26.9338 23.9857 26.5592 24.1467 26.1277C24.3076 25.6962 24.3378 25.2268 24.2336 24.7781L22.7101 18.1875L27.7867 13.7578C28.1352 13.455 28.3865 13.056 28.5091 12.6109C28.6317 12.1658 28.6201 11.6944 28.4757 11.2559ZM20.6535 16.2504C20.3321 16.53 20.093 16.8919 19.9619 17.2972C19.8308 17.7026 19.8126 18.1359 19.9093 18.5508L21.2441 24.3305L16.2121 21.2742C15.8466 21.0517 15.427 20.934 14.9992 20.934C14.5713 20.934 14.1517 21.0517 13.7863 21.2742L8.75425 24.3305L10.089 18.5508C10.1857 18.1359 10.1676 17.7026 10.0365 17.2972C9.90536 16.8919 9.66626 16.53 9.34488 16.2504L4.88121 12.3563L10.757 11.8477C11.1825 11.8112 11.5898 11.6588 11.9347 11.4069C12.2795 11.155 12.5487 10.8134 12.7128 10.4192L14.9992 4.97111L17.2855 10.4192C17.4497 10.8134 17.7188 11.155 18.0637 11.4069C18.4085 11.6588 18.8159 11.8112 19.2414 11.8477L25.1171 12.3563L20.6535 16.2504Z" fill="#D200FF"/>
</svg>
