<svg width="52" height="49" viewBox="0 0 52 49" fill="none" xmlns="http://www.w3.org/2000/svg">
<path fill-rule="evenodd" clip-rule="evenodd" d="M24.2786 22.0736V19.081C24.7299 19.0839 25.1801 19.037 25.6207 18.9413C25.7275 18.9151 25.8304 18.8927 25.9312 18.8708C26.0605 18.8427 26.1863 18.8153 26.3121 18.7817C26.5358 18.7218 26.7595 18.642 26.9832 18.5622C27.2749 18.4518 27.56 18.3252 27.8372 18.1832C28.2015 17.9826 28.5545 17.7628 28.8946 17.5248C28.9749 17.4603 29.0552 17.3984 29.1346 17.3373C29.2763 17.2281 29.415 17.1212 29.5453 17.0061L29.586 16.9662L29.6267 16.9263C30.1768 16.4284 30.6617 15.8655 31.0704 15.2504C32.1341 13.6562 32.693 11.7889 32.6769 9.8836C32.7894 7.57444 31.9718 5.31451 30.4004 3.59181C28.8291 1.86911 26.6302 0.821884 24.2786 0.67627H24.1769C21.8059 0.792569 19.5783 1.82554 17.9815 3.54919C16.3848 5.27283 15.5488 7.54682 15.6567 9.87362C15.643 11.9136 16.2911 13.9049 17.5071 15.5596L9.96292 23.2806V44.1692C9.96614 45.2265 10.3957 46.2396 11.1577 46.9872C11.9197 47.7348 12.9522 48.1562 14.0299 48.1594H35.5238C36.6014 48.1562 37.634 47.7348 38.396 46.9872C39.158 46.2396 39.5875 45.2265 39.5907 44.1692V23.2906L33.2666 17.3253C32.2709 18.7703 30.9331 19.957 29.3678 20.7839C27.8025 21.6109 26.0563 22.0534 24.2786 22.0736ZM28.4676 28.817C28.8489 28.8268 29.2189 28.9466 29.5312 29.1613C29.8436 29.3761 30.0846 29.6764 30.2241 30.0248C30.3637 30.3731 30.3955 30.754 30.3158 31.12C30.236 31.486 30.0482 31.8208 29.7757 32.0827C29.5032 32.3446 29.1581 32.522 28.7835 32.5927C28.4089 32.6633 28.0214 32.6242 27.6693 32.4802C27.3172 32.3361 27.0162 32.0936 26.8038 31.7827C26.5913 31.4719 26.4769 31.1065 26.4748 30.7323C26.4807 30.2192 26.6938 29.7293 27.0674 29.3703C27.4411 29.0112 27.9446 28.8122 28.4676 28.817ZM18.7069 9.8836C18.6003 8.34961 19.1151 6.83634 20.1394 5.67264C21.1636 4.50895 22.6146 3.78887 24.1769 3.6689C25.7352 3.79034 27.1817 4.51015 28.2021 5.67193C29.2225 6.83372 29.7344 8.34363 29.6267 9.87362C29.6376 11.001 29.3578 12.1128 28.8133 13.1057L24.1769 8.73642L19.6626 13.365C19.0288 12.3108 18.6985 11.1075 18.7069 9.8836ZM21.0861 41.7851C20.7039 41.7752 20.3331 41.6549 20.0203 41.4393C19.7075 41.2236 19.4666 40.9221 19.3277 40.5726C19.1887 40.2232 19.1581 39.8412 19.2395 39.4747C19.3209 39.1082 19.5107 38.7735 19.7852 38.5124C20.0598 38.2513 20.4067 38.0755 20.7826 38.0071C21.1585 37.9386 21.5467 37.9806 21.8984 38.1277C22.2501 38.2747 22.5497 38.5204 22.7597 38.8339C22.9697 39.1473 23.0807 39.5146 23.0789 39.8897C23.064 40.3982 22.8474 40.8808 22.4752 41.2348C22.1029 41.5889 21.6045 41.7863 21.0861 41.7851ZM28.1016 42.1641L19.2153 30.3931L21.7571 28.6574L30.6638 40.4284L28.1016 42.1641ZM6.15706 3.01043C5.89859 4.34949 5.23501 5.58112 4.25278 6.5448C3.27055 7.50849 2.01522 8.15955 0.650391 8.41313C2.01522 8.66671 3.27055 9.31777 4.25278 10.2815C5.23501 11.2451 5.89859 12.4768 6.15706 13.8158C6.41566 12.4765 7.07954 11.2447 8.06216 10.281C9.04479 9.31725 10.3006 8.66635 11.6658 8.41313C10.3006 8.15991 9.04479 7.50901 8.06216 6.5453C7.07954 5.58158 6.41566 4.34976 6.15706 3.01043ZM41.1332 11.5048C42.5639 10.2063 43.5305 8.54678 43.907 6.74248C44.2818 8.54825 45.2477 10.2095 46.6785 11.5096C48.1093 12.8097 49.9387 13.6881 51.9279 14.0303C49.9411 14.3715 48.1135 15.2475 46.6829 16.5445C45.2523 17.8415 44.2851 19.4992 43.907 21.3021C43.5305 19.4978 42.5639 17.8382 41.1332 16.5397C39.7025 15.2412 37.874 14.364 35.8861 14.0223C37.874 13.6806 39.7025 12.8033 41.1332 11.5048Z" fill="black"/>
<path fill-rule="evenodd" clip-rule="evenodd" d="M24.2786 22.0736V19.081C24.7299 19.0839 25.1801 19.037 25.6207 18.9413C25.7275 18.9151 25.8304 18.8927 25.9312 18.8708C26.0605 18.8427 26.1863 18.8153 26.3121 18.7817C26.5358 18.7218 26.7595 18.642 26.9832 18.5622C27.2749 18.4518 27.56 18.3252 27.8372 18.1832C28.2015 17.9826 28.5545 17.7628 28.8946 17.5248C28.9749 17.4603 29.0552 17.3984 29.1346 17.3373C29.2763 17.2281 29.415 17.1212 29.5453 17.0061L29.586 16.9662L29.6267 16.9263C30.1768 16.4284 30.6617 15.8655 31.0704 15.2504C32.1341 13.6562 32.693 11.7889 32.6769 9.8836C32.7894 7.57444 31.9718 5.31451 30.4004 3.59181C28.8291 1.86911 26.6302 0.821884 24.2786 0.67627H24.1769C21.8059 0.792569 19.5783 1.82554 17.9815 3.54919C16.3848 5.27283 15.5488 7.54682 15.6567 9.87362C15.643 11.9136 16.2911 13.9049 17.5071 15.5596L9.96292 23.2806V44.1692C9.96614 45.2265 10.3957 46.2396 11.1577 46.9872C11.9197 47.7348 12.9522 48.1562 14.0299 48.1594H35.5238C36.6014 48.1562 37.634 47.7348 38.396 46.9872C39.158 46.2396 39.5875 45.2265 39.5907 44.1692V23.2906L33.2666 17.3253C32.2709 18.7703 30.9331 19.957 29.3678 20.7839C27.8025 21.6109 26.0563 22.0534 24.2786 22.0736ZM28.4676 28.817C28.8489 28.8268 29.2189 28.9466 29.5312 29.1613C29.8436 29.3761 30.0846 29.6764 30.2241 30.0248C30.3637 30.3731 30.3955 30.754 30.3158 31.12C30.236 31.486 30.0482 31.8208 29.7757 32.0827C29.5032 32.3446 29.1581 32.522 28.7835 32.5927C28.4089 32.6633 28.0214 32.6242 27.6693 32.4802C27.3172 32.3361 27.0162 32.0936 26.8038 31.7827C26.5913 31.4719 26.4769 31.1065 26.4748 30.7323C26.4807 30.2192 26.6938 29.7293 27.0674 29.3703C27.4411 29.0112 27.9446 28.8122 28.4676 28.817ZM18.7069 9.8836C18.6003 8.34961 19.1151 6.83634 20.1394 5.67264C21.1636 4.50895 22.6146 3.78887 24.1769 3.6689C25.7352 3.79034 27.1817 4.51015 28.2021 5.67193C29.2225 6.83372 29.7344 8.34363 29.6267 9.87362C29.6376 11.001 29.3578 12.1128 28.8133 13.1057L24.1769 8.73642L19.6626 13.365C19.0288 12.3108 18.6985 11.1075 18.7069 9.8836ZM21.0861 41.7851C20.7039 41.7752 20.3331 41.6549 20.0203 41.4393C19.7075 41.2236 19.4666 40.9221 19.3277 40.5726C19.1887 40.2232 19.1581 39.8412 19.2395 39.4747C19.3209 39.1082 19.5107 38.7735 19.7852 38.5124C20.0598 38.2513 20.4067 38.0755 20.7826 38.0071C21.1585 37.9386 21.5467 37.9806 21.8984 38.1277C22.2501 38.2747 22.5497 38.5204 22.7597 38.8339C22.9697 39.1473 23.0807 39.5146 23.0789 39.8897C23.064 40.3982 22.8474 40.8808 22.4752 41.2348C22.1029 41.5889 21.6045 41.7863 21.0861 41.7851ZM28.1016 42.1641L19.2153 30.3931L21.7571 28.6574L30.6638 40.4284L28.1016 42.1641ZM6.15706 3.01043C5.89859 4.34949 5.23501 5.58112 4.25278 6.5448C3.27055 7.50849 2.01522 8.15955 0.650391 8.41313C2.01522 8.66671 3.27055 9.31777 4.25278 10.2815C5.23501 11.2451 5.89859 12.4768 6.15706 13.8158C6.41566 12.4765 7.07954 11.2447 8.06216 10.281C9.04479 9.31725 10.3006 8.66635 11.6658 8.41313C10.3006 8.15991 9.04479 7.50901 8.06216 6.5453C7.07954 5.58158 6.41566 4.34976 6.15706 3.01043ZM41.1332 11.5048C42.5639 10.2063 43.5305 8.54678 43.907 6.74248C44.2818 8.54825 45.2477 10.2095 46.6785 11.5096C48.1093 12.8097 49.9387 13.6881 51.9279 14.0303C49.9411 14.3715 48.1135 15.2475 46.6829 16.5445C45.2523 17.8415 44.2851 19.4992 43.907 21.3021C43.5305 19.4978 42.5639 17.8382 41.1332 16.5397C39.7025 15.2412 37.874 14.364 35.8861 14.0223C37.874 13.6806 39.7025 12.8033 41.1332 11.5048Z" fill="url(#paint0_linear_1800_3955)"/>
<defs>
<linearGradient id="paint0_linear_1800_3955" x1="33.2916" y1="3.53791" x2="8.48202" y2="49.6771" gradientUnits="userSpaceOnUse">
<stop stop-color="#EB00FF"/>
<stop offset="1" stop-color="#8F00FF"/>
</linearGradient>
</defs>
</svg>
