<svg width="41" height="43" viewBox="0 0 41 43" fill="none" xmlns="http://www.w3.org/2000/svg">
<path fill-rule="evenodd" clip-rule="evenodd" d="M24.2472 3.58193C24.2472 5.50355 22.6629 7.06132 20.7085 7.06132C18.7541 7.06132 17.1698 5.50355 17.1698 3.58193C17.1698 1.66032 18.7541 0.102539 20.7085 0.102539C22.6629 0.102539 24.2472 1.66032 24.2472 3.58193ZM7.84532 8.18927C7.84532 10.1109 6.26098 11.6687 4.3066 11.6687C2.35222 11.6687 0.76788 10.1109 0.76788 8.18927C0.76788 6.26766 2.35222 4.70988 4.3066 4.70988C6.26098 4.70988 7.84532 6.26766 7.84532 8.18927ZM39.8999 37.3951C40.234 37.7237 40.4217 38.1693 40.4219 38.6339V40.8631C40.422 41.0932 40.376 41.321 40.2865 41.5336C40.1971 41.7462 40.0658 41.9394 39.9004 42.1021C39.7349 42.2648 39.5384 42.3938 39.3222 42.4818C39.1059 42.5698 38.8742 42.615 38.6402 42.6149H2.36565C2.13165 42.6149 1.89994 42.5697 1.68374 42.4817C1.46755 42.3937 1.27111 42.2646 1.10565 42.1019C0.940191 41.9392 0.808958 41.7461 0.719448 41.5335C0.629939 41.321 0.583908 41.0931 0.583984 40.8631V38.6339C0.58414 38.1693 0.771881 37.7237 1.10596 37.3951C1.44003 37.0666 1.89311 36.8818 2.36565 36.8815H38.6402C39.1127 36.8818 39.5658 37.0666 39.8999 37.3951ZM5.62734 14.6882L5.63729 14.6979C5.70306 14.7546 5.76508 14.8154 5.82296 14.8799L9.78572 18.7768L19.0905 9.62915L19.111 9.64931C19.289 9.46114 19.5044 9.31101 19.7439 9.20827C19.9834 9.10553 20.2419 9.05238 20.5032 9.05213C20.764 9.05234 21.0219 9.10525 21.261 9.20758C21.5001 9.30991 21.7152 9.45949 21.893 9.64701L21.9112 9.62915L31.1955 18.7578L35.2256 14.7953C35.2822 14.7313 35.3433 14.6712 35.4084 14.6156L35.4617 14.5632L35.4669 14.5684C35.7955 14.3087 36.2072 14.1463 36.6617 14.1463C36.9466 14.1464 37.2279 14.2091 37.485 14.3298C37.7421 14.4505 37.9685 14.6261 38.1478 14.8438C38.327 15.0615 38.4546 15.3158 38.5211 15.5882C38.5877 15.8605 38.5915 16.144 38.5324 16.4181V32.9057H38.5108C38.4006 33.8415 37.6006 34.5717 36.6196 34.5717C36.6173 34.5717 36.6152 34.5715 36.6131 34.5712C36.6116 34.571 36.6102 34.5708 36.6087 34.5706L36.6036 34.5698C36.6018 34.5696 36.5999 34.5694 36.5979 34.5694V34.6132H4.40677V34.6109C4.39974 34.6114 4.39271 34.6132 4.38568 34.6132C3.38943 34.6132 2.58059 33.8611 2.48981 32.9057H2.42949V16.0685H2.47634C2.48721 15.5775 2.69308 15.1102 3.04991 14.7666C3.40675 14.4229 3.8862 14.2302 4.38568 14.2298C4.84192 14.2313 5.2823 14.3945 5.62617 14.6893L5.62734 14.6882ZM33.9576 19.5865V19.5318L33.902 19.5865H33.9576ZM36.5215 11.6687C38.4759 11.6687 40.0602 10.1109 40.0602 8.18927C40.0602 6.26766 38.4759 4.70988 36.5215 4.70988C34.5671 4.70988 32.9828 6.26766 32.9828 8.18927C32.9828 10.1109 34.5671 11.6687 36.5215 11.6687Z" fill="url(#paint0_linear_1800_4323)"/>
<defs>
<linearGradient id="paint0_linear_1800_4323" x1="32.9355" y1="-2.32383" x2="2.36593" y2="43.2282" gradientUnits="userSpaceOnUse">
<stop stop-color="#FFA800"/>
<stop offset="1" stop-color="#FF5C00"/>
</linearGradient>
</defs>
</svg>
