<svg width="40" height="41" viewBox="0 0 40 41" fill="none" xmlns="http://www.w3.org/2000/svg">
<circle cx="20" cy="20.5" r="20" fill="#0084FF"/>
<mask id="mask0_1544_354287" style="mask-type:alpha" maskUnits="userSpaceOnUse" x="0" y="1" width="40" height="39">
<ellipse cx="20.0185" cy="20.5529" rx="19.1845" ry="19.1845" fill="#C4C4C4"/>
</mask>
<g mask="url(#mask0_1544_354287)">
<path d="M11.7959 9.17842C11.7959 8.99089 11.9466 8.83887 12.1325 8.83887H20.5326C21.6805 8.83887 22.7646 8.95844 23.7849 9.1976C24.8265 9.41501 25.7299 9.79548 26.4952 10.339C27.2817 10.8608 27.6749 11.491 28.1213 12.4041C28.589 13.2955 28.7945 14.4699 28.7945 15.8178C28.7945 17.4484 28.6138 18.7219 27.7847 19.8742C26.9557 21.0048 26.1698 21.2603 25.7386 21.5526C26.7795 22.5432 28.7993 29.1326 29.329 30.9052C29.4138 31.189 29.6015 31.4255 29.8569 31.5721C30.0254 31.6687 29.9574 31.9282 29.7635 31.9282H25.0227C24.7222 31.9282 24.4578 31.7278 24.3708 31.4375C24.0062 30.2205 22.9798 26.9388 21.637 23.8645C21.3237 23.1472 20.7949 22.699 20.0178 22.699H17.1067C16.9208 22.699 16.7701 22.851 16.7701 23.0385V31.5886C16.7701 31.7762 16.6194 31.9282 16.4335 31.9282H12.1325C11.9466 31.9282 11.7959 31.7762 11.7959 31.5886V9.17842ZM16.7701 18.0546C16.7701 18.2422 16.9208 18.3942 17.1067 18.3942H19.7035C20.1499 18.3942 20.6176 18.3833 21.1065 18.3616C21.6167 18.3181 22.0737 18.2203 22.4776 18.0681C22.8815 17.8941 23.211 17.6332 23.4661 17.2854C23.7424 16.9375 23.7849 16.4483 23.7849 15.8178C23.7849 15.2308 23.7637 14.7634 23.5298 14.4155C23.296 14.0677 22.9984 13.8068 22.637 13.6328C22.2757 13.4372 21.8611 13.3067 21.3935 13.2415C20.9258 13.1763 20.4688 13.1437 20.0224 13.1437H17.1067C16.9208 13.1437 16.7701 13.2957 16.7701 13.4832V18.0546Z" fill="white"/>
</g>
</svg>
