<svg width="30" height="30" viewBox="0 0 30 30" fill="none" xmlns="http://www.w3.org/2000/svg">
<path d="M15 2.4917C8.1 2.4917 2.5 8.0917 2.5 14.9917C2.5 21.8917 8.1 27.4917 15 27.4917C21.9 27.4917 27.5 21.8917 27.5 14.9917C27.5 8.0917 21.9 2.4917 15 2.4917ZM18.5875 5.6667C21.2125 6.6792 23.3 8.7667 24.3125 11.3917L20.8375 12.8292C20.5244 11.9869 20.0327 11.2222 19.3962 10.5879C18.7597 9.95352 17.9934 9.46443 17.15 9.1542L18.5875 5.6667ZM11.4125 5.6667L12.875 9.1417C12.0216 9.45268 11.2463 9.94592 10.603 10.5871C9.95969 11.2282 9.46385 12.0019 9.15 12.8542L5.675 11.4042C6.17623 10.0994 6.94597 8.91442 7.93434 7.92604C8.92272 6.93767 10.1077 6.16793 11.4125 5.6667ZM11.4125 24.3167C10.1088 23.8135 8.92488 23.0431 7.93675 22.0549C6.94863 21.0668 6.1782 19.8829 5.675 18.5792L9.15 17.1417C9.46167 17.9918 9.95546 18.7634 10.5968 19.4026C11.2381 20.0417 12.0114 20.5329 12.8625 20.8417L11.4125 24.3167ZM11.25 14.9917C11.25 12.9167 12.925 11.2417 15 11.2417C17.075 11.2417 18.75 12.9167 18.75 14.9917C18.75 17.0667 17.075 18.7417 15 18.7417C12.925 18.7417 11.25 17.0667 11.25 14.9917ZM18.6 24.3167L17.1625 20.8417C18.0098 20.5278 18.7786 20.033 19.4155 19.3919C20.0523 18.7508 20.5418 17.9786 20.85 17.1292L24.325 18.5917C23.8221 19.8921 23.0531 21.0731 22.0672 22.0589C21.0814 23.0448 19.9004 23.8138 18.6 24.3167Z" fill="#D200FF"/>
</svg>
