<svg width="49" height="49" viewBox="0 0 49 49" fill="none" xmlns="http://www.w3.org/2000/svg">
<path d="M35.4143 19.4189C36.6535 17.5668 36.6535 15.0323 35.216 13.1802C33.7784 11.2794 31.3495 10.5483 29.1683 11.1819L23.4181 3.57848C22.9224 2.89612 21.9806 2.65242 21.237 3.04234C20.3943 3.52974 20.1464 4.55327 20.6917 5.33311C19.4029 12.4979 14.3962 18.4929 11.1741 21.7584C10.381 21.2223 9.33998 21.1735 8.49727 21.7584L3.73847 25.2189C1.06164 27.1685 0.466786 30.9215 2.49919 33.6022L2.10263 33.1148L1.16078 33.7971C0.615498 34.1871 0.466786 34.9669 0.912924 35.5518L3.73847 39.256C4.13503 39.7921 4.92817 39.9384 5.52302 39.4997L6.41529 38.8173L5.87001 38.135C7.605 40.4258 10.6288 41.1569 13.1569 40.0846L22.7241 47.9317C22.972 48.1754 23.3685 48.1754 23.666 47.9804L24.013 47.7367L27.6812 45.056L29.2179 43.935C29.5649 43.6913 29.6145 43.1552 29.2675 42.8627L27.2351 41.2056C26.8881 40.9132 26.3924 40.9132 26.0454 41.1568C25.1531 41.7905 23.9138 41.7905 23.0711 41.1081L17.8166 36.9165L19.155 35.9417C19.9481 35.3568 20.2456 34.3333 19.8986 33.456C24.013 31.3602 31.2999 28.387 38.5868 29.2643C39.1817 29.9467 40.2722 30.0442 41.0158 29.4106C41.6602 28.8257 41.6602 27.8509 41.1645 27.1685L35.4143 19.4189ZM12.1159 36.1854C11.1741 36.8678 9.83569 36.6728 9.14169 35.7467L5.7213 31.2627C5.02731 30.3366 5.22559 29.0206 6.16744 28.3383L9.48869 25.9013L15.4372 33.7484L12.1159 36.1854ZM37.8432 9.47599L42.6516 5.96673C43.296 5.47933 44.1883 5.62555 44.684 6.25916V6.3079C45.1797 6.94152 45.031 7.81884 44.3866 8.30624L39.5782 11.8155C38.9338 12.3029 38.0415 12.1567 37.5458 11.5231V11.4743C37.0501 10.8407 37.1988 9.96339 37.8432 9.47599ZM39.5287 2.84738L36.3065 7.91632C35.8604 8.59867 34.9186 8.79363 34.2246 8.30624C33.5801 7.86758 33.4314 7.039 33.828 6.40538L37.0501 1.33645C37.4962 0.654088 38.4381 0.459129 39.1321 0.946527C39.7765 1.33645 39.9252 2.16502 39.5287 2.84738ZM48.3027 13.034C48.6001 13.8138 48.1044 14.6911 47.3113 14.8861L41.4123 16.4458C40.6688 16.6407 39.9252 16.2508 39.6774 15.5197C39.3799 14.7399 39.8757 13.8626 40.6688 13.6676L46.5677 12.1567C47.3113 11.9617 48.0549 12.3516 48.3027 13.034Z" fill="black"/>
<path d="M35.4143 19.4189C36.6535 17.5668 36.6535 15.0323 35.216 13.1802C33.7784 11.2794 31.3495 10.5483 29.1683 11.1819L23.4181 3.57848C22.9224 2.89612 21.9806 2.65242 21.237 3.04234C20.3943 3.52974 20.1464 4.55327 20.6917 5.33311C19.4029 12.4979 14.3962 18.4929 11.1741 21.7584C10.381 21.2223 9.33998 21.1735 8.49727 21.7584L3.73847 25.2189C1.06164 27.1685 0.466786 30.9215 2.49919 33.6022L2.10263 33.1148L1.16078 33.7971C0.615498 34.1871 0.466786 34.9669 0.912924 35.5518L3.73847 39.256C4.13503 39.7921 4.92817 39.9384 5.52302 39.4997L6.41529 38.8173L5.87001 38.135C7.605 40.4258 10.6288 41.1569 13.1569 40.0846L22.7241 47.9317C22.972 48.1754 23.3685 48.1754 23.666 47.9804L24.013 47.7367L27.6812 45.056L29.2179 43.935C29.5649 43.6913 29.6145 43.1552 29.2675 42.8627L27.2351 41.2056C26.8881 40.9132 26.3924 40.9132 26.0454 41.1568C25.1531 41.7905 23.9138 41.7905 23.0711 41.1081L17.8166 36.9165L19.155 35.9417C19.9481 35.3568 20.2456 34.3333 19.8986 33.456C24.013 31.3602 31.2999 28.387 38.5868 29.2643C39.1817 29.9467 40.2722 30.0442 41.0158 29.4106C41.6602 28.8257 41.6602 27.8509 41.1645 27.1685L35.4143 19.4189ZM12.1159 36.1854C11.1741 36.8678 9.83569 36.6728 9.14169 35.7467L5.7213 31.2627C5.02731 30.3366 5.22559 29.0206 6.16744 28.3383L9.48869 25.9013L15.4372 33.7484L12.1159 36.1854ZM37.8432 9.47599L42.6516 5.96673C43.296 5.47933 44.1883 5.62555 44.684 6.25916V6.3079C45.1797 6.94152 45.031 7.81884 44.3866 8.30624L39.5782 11.8155C38.9338 12.3029 38.0415 12.1567 37.5458 11.5231V11.4743C37.0501 10.8407 37.1988 9.96339 37.8432 9.47599ZM39.5287 2.84738L36.3065 7.91632C35.8604 8.59867 34.9186 8.79363 34.2246 8.30624C33.5801 7.86758 33.4314 7.039 33.828 6.40538L37.0501 1.33645C37.4962 0.654088 38.4381 0.459129 39.1321 0.946527C39.7765 1.33645 39.9252 2.16502 39.5287 2.84738ZM48.3027 13.034C48.6001 13.8138 48.1044 14.6911 47.3113 14.8861L41.4123 16.4458C40.6688 16.6407 39.9252 16.2508 39.6774 15.5197C39.3799 14.7399 39.8757 13.8626 40.6688 13.6676L46.5677 12.1567C47.3113 11.9617 48.0549 12.3516 48.3027 13.034Z" fill="url(#paint0_linear_1800_4411)"/>
<defs>
<linearGradient id="paint0_linear_1800_4411" x1="40.5679" y1="7.11446" x2="13.5619" y2="48.3143" gradientUnits="userSpaceOnUse">
<stop stop-color="#00C2FF"/>
<stop offset="1" stop-color="#00FFB2"/>
</linearGradient>
</defs>
</svg>
