<svg width="30" height="30" viewBox="0 0 30 30" fill="none" xmlns="http://www.w3.org/2000/svg">
<path d="M9.22984 22.4342C9.22984 22.4342 19.998 23.9474 24.6129 28.4868H26.1512C26.5592 28.4868 26.9505 28.3274 27.2389 28.0436C27.5274 27.7599 27.6895 27.375 27.6895 26.9737V17.7994C28.3506 17.6322 28.9364 17.2535 29.3547 16.7229C29.773 16.1923 30 15.5399 30 14.8684C30 14.197 29.773 13.5446 29.3547 13.014C28.9364 12.4834 28.3506 12.1046 27.6895 11.9374V2.76316C27.6895 2.36184 27.5274 1.97697 27.2389 1.69319C26.9505 1.40942 26.5592 1.25 26.1512 1.25H24.6129C19.998 5.78947 9.22984 7.30263 9.22984 7.30263H3.07661C2.26064 7.30263 1.4781 7.62147 0.901119 8.18902C0.324142 8.75656 0 9.52632 0 10.3289V19.4079C0 20.2105 0.324142 20.9803 0.901119 21.5478C1.4781 22.1154 2.26064 22.4342 3.07661 22.4342H4.61492L6.15322 30H9.22984V22.4342ZM12.3064 9.81599C13.3571 9.59507 14.6554 9.28638 16.0599 8.88237C18.6412 8.13487 21.9209 6.95914 24.6129 5.14487V24.5905C21.9209 22.7777 18.6397 21.602 16.0599 20.8545C14.8209 20.4983 13.5689 20.1874 12.3064 19.9224V9.81447V9.81599ZM3.07661 10.3289H9.22984V19.4079H3.07661V10.3289Z" fill="#D200FF"/>
</svg>
